G04 #@! TF.GenerationSoftware,KiCad,Pcbnew,(6.0.10)*
G04 #@! TF.CreationDate,2023-10-31T07:54:40-04:00*
G04 #@! TF.ProjectId,iDLSchema,69444c53-6368-4656-9d61-2e6b69636164,0.3.2*
G04 #@! TF.SameCoordinates,Original*
G04 #@! TF.FileFunction,Legend,Top*
G04 #@! TF.FilePolarity,Positive*
%FSLAX46Y46*%
G04 Gerber Fmt 4.6, Leading zero omitted, Abs format (unit mm)*
G04 Created by KiCad (PCBNEW (6.0.10)) date 2023-10-31 07:54:40*
%MOMM*%
%LPD*%
G01*
G04 APERTURE LIST*
%ADD10C,0.300000*%
%ADD11C,0.150000*%
%ADD12C,0.120000*%
%ADD13C,1.600000*%
%ADD14O,1.600000X1.600000*%
%ADD15R,1.524000X1.524000*%
%ADD16C,1.524000*%
G04 APERTURE END LIST*
D10*
X314768571Y-93158571D02*
X315268571Y-94658571D01*
X315768571Y-93158571D01*
X316268571Y-94658571D02*
X316268571Y-93658571D01*
X316268571Y-93944285D02*
X316340000Y-93801428D01*
X316411428Y-93730000D01*
X316554285Y-93658571D01*
X316697142Y-93658571D01*
X317197142Y-94658571D02*
X317197142Y-93658571D01*
X317197142Y-93158571D02*
X317125714Y-93230000D01*
X317197142Y-93301428D01*
X317268571Y-93230000D01*
X317197142Y-93158571D01*
X317197142Y-93301428D01*
X317840000Y-94587142D02*
X317982857Y-94658571D01*
X318268571Y-94658571D01*
X318411428Y-94587142D01*
X318482857Y-94444285D01*
X318482857Y-94372857D01*
X318411428Y-94230000D01*
X318268571Y-94158571D01*
X318054285Y-94158571D01*
X317911428Y-94087142D01*
X317840000Y-93944285D01*
X317840000Y-93872857D01*
X317911428Y-93730000D01*
X318054285Y-93658571D01*
X318268571Y-93658571D01*
X318411428Y-93730000D01*
X319125714Y-94658571D02*
X319125714Y-93158571D01*
X319768571Y-94658571D02*
X319768571Y-93872857D01*
X319697142Y-93730000D01*
X319554285Y-93658571D01*
X319340000Y-93658571D01*
X319197142Y-93730000D01*
X319125714Y-93801428D01*
X321125714Y-94658571D02*
X321125714Y-93872857D01*
X321054285Y-93730000D01*
X320911428Y-93658571D01*
X320625714Y-93658571D01*
X320482857Y-93730000D01*
X321125714Y-94587142D02*
X320982857Y-94658571D01*
X320625714Y-94658571D01*
X320482857Y-94587142D01*
X320411428Y-94444285D01*
X320411428Y-94301428D01*
X320482857Y-94158571D01*
X320625714Y-94087142D01*
X320982857Y-94087142D01*
X321125714Y-94015714D01*
X321840000Y-94658571D02*
X321840000Y-93158571D01*
X321982857Y-94087142D02*
X322411428Y-94658571D01*
X322411428Y-93658571D02*
X321840000Y-94230000D01*
X323982857Y-93158571D02*
X324482857Y-94658571D01*
X324982857Y-93158571D01*
X326054285Y-94587142D02*
X325911428Y-94658571D01*
X325625714Y-94658571D01*
X325482857Y-94587142D01*
X325411428Y-94444285D01*
X325411428Y-93872857D01*
X325482857Y-93730000D01*
X325625714Y-93658571D01*
X325911428Y-93658571D01*
X326054285Y-93730000D01*
X326125714Y-93872857D01*
X326125714Y-94015714D01*
X325411428Y-94158571D01*
X326768571Y-94658571D02*
X326768571Y-93658571D01*
X326768571Y-93801428D02*
X326840000Y-93730000D01*
X326982857Y-93658571D01*
X327197142Y-93658571D01*
X327340000Y-93730000D01*
X327411428Y-93872857D01*
X327411428Y-94658571D01*
X327411428Y-93872857D02*
X327482857Y-93730000D01*
X327625714Y-93658571D01*
X327840000Y-93658571D01*
X327982857Y-93730000D01*
X328054285Y-93872857D01*
X328054285Y-94658571D01*
X329411428Y-93658571D02*
X329411428Y-94658571D01*
X328768571Y-93658571D02*
X328768571Y-94444285D01*
X328840000Y-94587142D01*
X328982857Y-94658571D01*
X329197142Y-94658571D01*
X329340000Y-94587142D01*
X329411428Y-94515714D01*
X330125714Y-94658571D02*
X330125714Y-93658571D01*
X330125714Y-93944285D02*
X330197142Y-93801428D01*
X330268571Y-93730000D01*
X330411428Y-93658571D01*
X330554285Y-93658571D01*
X331054285Y-94658571D02*
X331054285Y-93658571D01*
X331054285Y-93158571D02*
X330982857Y-93230000D01*
X331054285Y-93301428D01*
X331125714Y-93230000D01*
X331054285Y-93158571D01*
X331054285Y-93301428D01*
X333268571Y-95158571D02*
X333268571Y-93015714D01*
X335482857Y-94658571D02*
X335482857Y-93658571D01*
X335482857Y-93158571D02*
X335411428Y-93230000D01*
X335482857Y-93301428D01*
X335554285Y-93230000D01*
X335482857Y-93158571D01*
X335482857Y-93301428D01*
X336125714Y-94587142D02*
X336268571Y-94658571D01*
X336554285Y-94658571D01*
X336697142Y-94587142D01*
X336768571Y-94444285D01*
X336768571Y-94372857D01*
X336697142Y-94230000D01*
X336554285Y-94158571D01*
X336340000Y-94158571D01*
X336197142Y-94087142D01*
X336125714Y-93944285D01*
X336125714Y-93872857D01*
X336197142Y-93730000D01*
X336340000Y-93658571D01*
X336554285Y-93658571D01*
X336697142Y-93730000D01*
X337411428Y-94658571D02*
X337411428Y-93158571D01*
X337768571Y-93158571D01*
X337982857Y-93230000D01*
X338125714Y-93372857D01*
X338197142Y-93515714D01*
X338268571Y-93801428D01*
X338268571Y-94015714D01*
X338197142Y-94301428D01*
X338125714Y-94444285D01*
X337982857Y-94587142D01*
X337768571Y-94658571D01*
X337411428Y-94658571D01*
X339125714Y-94658571D02*
X338982857Y-94587142D01*
X338911428Y-94515714D01*
X338840000Y-94372857D01*
X338840000Y-93944285D01*
X338911428Y-93801428D01*
X338982857Y-93730000D01*
X339125714Y-93658571D01*
X339340000Y-93658571D01*
X339482857Y-93730000D01*
X339554285Y-93801428D01*
X339625714Y-93944285D01*
X339625714Y-94372857D01*
X339554285Y-94515714D01*
X339482857Y-94587142D01*
X339340000Y-94658571D01*
X339125714Y-94658571D01*
X340482857Y-94658571D02*
X340340000Y-94587142D01*
X340268571Y-94515714D01*
X340197142Y-94372857D01*
X340197142Y-93944285D01*
X340268571Y-93801428D01*
X340340000Y-93730000D01*
X340482857Y-93658571D01*
X340697142Y-93658571D01*
X340840000Y-93730000D01*
X340911428Y-93801428D01*
X340982857Y-93944285D01*
X340982857Y-94372857D01*
X340911428Y-94515714D01*
X340840000Y-94587142D01*
X340697142Y-94658571D01*
X340482857Y-94658571D01*
X341625714Y-94658571D02*
X341625714Y-93658571D01*
X341625714Y-93944285D02*
X341697142Y-93801428D01*
X341768571Y-93730000D01*
X341911428Y-93658571D01*
X342054285Y-93658571D01*
X343268571Y-94658571D02*
X342554285Y-94658571D01*
X342554285Y-93158571D01*
X343982857Y-94658571D02*
X343840000Y-94587142D01*
X343768571Y-94515714D01*
X343697142Y-94372857D01*
X343697142Y-93944285D01*
X343768571Y-93801428D01*
X343840000Y-93730000D01*
X343982857Y-93658571D01*
X344197142Y-93658571D01*
X344340000Y-93730000D01*
X344411428Y-93801428D01*
X344482857Y-93944285D01*
X344482857Y-94372857D01*
X344411428Y-94515714D01*
X344340000Y-94587142D01*
X344197142Y-94658571D01*
X343982857Y-94658571D01*
X345768571Y-94587142D02*
X345625714Y-94658571D01*
X345340000Y-94658571D01*
X345197142Y-94587142D01*
X345125714Y-94515714D01*
X345054285Y-94372857D01*
X345054285Y-93944285D01*
X345125714Y-93801428D01*
X345197142Y-93730000D01*
X345340000Y-93658571D01*
X345625714Y-93658571D01*
X345768571Y-93730000D01*
X346411428Y-94658571D02*
X346411428Y-93158571D01*
X346554285Y-94087142D02*
X346982857Y-94658571D01*
X346982857Y-93658571D02*
X346411428Y-94230000D01*
X348197142Y-94587142D02*
X348054285Y-94658571D01*
X347768571Y-94658571D01*
X347625714Y-94587142D01*
X347554285Y-94444285D01*
X347554285Y-93872857D01*
X347625714Y-93730000D01*
X347768571Y-93658571D01*
X348054285Y-93658571D01*
X348197142Y-93730000D01*
X348268571Y-93872857D01*
X348268571Y-94015714D01*
X347554285Y-94158571D01*
X349554285Y-94658571D02*
X349554285Y-93158571D01*
X349554285Y-94587142D02*
X349411428Y-94658571D01*
X349125714Y-94658571D01*
X348982857Y-94587142D01*
X348911428Y-94515714D01*
X348840000Y-94372857D01*
X348840000Y-93944285D01*
X348911428Y-93801428D01*
X348982857Y-93730000D01*
X349125714Y-93658571D01*
X349411428Y-93658571D01*
X349554285Y-93730000D01*
X351411428Y-94658571D02*
X351411428Y-93158571D01*
X351982857Y-93158571D01*
X352125714Y-93230000D01*
X352197142Y-93301428D01*
X352268571Y-93444285D01*
X352268571Y-93658571D01*
X352197142Y-93801428D01*
X352125714Y-93872857D01*
X351982857Y-93944285D01*
X351411428Y-93944285D01*
X353768571Y-94515714D02*
X353697142Y-94587142D01*
X353482857Y-94658571D01*
X353340000Y-94658571D01*
X353125714Y-94587142D01*
X352982857Y-94444285D01*
X352911428Y-94301428D01*
X352840000Y-94015714D01*
X352840000Y-93801428D01*
X352911428Y-93515714D01*
X352982857Y-93372857D01*
X353125714Y-93230000D01*
X353340000Y-93158571D01*
X353482857Y-93158571D01*
X353697142Y-93230000D01*
X353768571Y-93301428D01*
X354911428Y-93872857D02*
X355125714Y-93944285D01*
X355197142Y-94015714D01*
X355268571Y-94158571D01*
X355268571Y-94372857D01*
X355197142Y-94515714D01*
X355125714Y-94587142D01*
X354982857Y-94658571D01*
X354411428Y-94658571D01*
X354411428Y-93158571D01*
X354911428Y-93158571D01*
X355054285Y-93230000D01*
X355125714Y-93301428D01*
X355197142Y-93444285D01*
X355197142Y-93587142D01*
X355125714Y-93730000D01*
X355054285Y-93801428D01*
X354911428Y-93872857D01*
X354411428Y-93872857D01*
X356911428Y-93658571D02*
X357268571Y-94658571D01*
X357625714Y-93658571D01*
X358482857Y-93158571D02*
X358625714Y-93158571D01*
X358768571Y-93230000D01*
X358840000Y-93301428D01*
X358911428Y-93444285D01*
X358982857Y-93730000D01*
X358982857Y-94087142D01*
X358911428Y-94372857D01*
X358840000Y-94515714D01*
X358768571Y-94587142D01*
X358625714Y-94658571D01*
X358482857Y-94658571D01*
X358340000Y-94587142D01*
X358268571Y-94515714D01*
X358197142Y-94372857D01*
X358125714Y-94087142D01*
X358125714Y-93730000D01*
X358197142Y-93444285D01*
X358268571Y-93301428D01*
X358340000Y-93230000D01*
X358482857Y-93158571D01*
X359625714Y-94515714D02*
X359697142Y-94587142D01*
X359625714Y-94658571D01*
X359554285Y-94587142D01*
X359625714Y-94515714D01*
X359625714Y-94658571D01*
X360197142Y-93158571D02*
X361125714Y-93158571D01*
X360625714Y-93730000D01*
X360840000Y-93730000D01*
X360982857Y-93801428D01*
X361054285Y-93872857D01*
X361125714Y-94015714D01*
X361125714Y-94372857D01*
X361054285Y-94515714D01*
X360982857Y-94587142D01*
X360840000Y-94658571D01*
X360411428Y-94658571D01*
X360268571Y-94587142D01*
X360197142Y-94515714D01*
X361768571Y-94515714D02*
X361840000Y-94587142D01*
X361768571Y-94658571D01*
X361697142Y-94587142D01*
X361768571Y-94515714D01*
X361768571Y-94658571D01*
X362411428Y-93301428D02*
X362482857Y-93230000D01*
X362625714Y-93158571D01*
X362982857Y-93158571D01*
X363125714Y-93230000D01*
X363197142Y-93301428D01*
X363268571Y-93444285D01*
X363268571Y-93587142D01*
X363197142Y-93801428D01*
X362340000Y-94658571D01*
X363268571Y-94658571D01*
X374758571Y-93872857D02*
X375258571Y-93872857D01*
X375472857Y-94658571D02*
X374758571Y-94658571D01*
X374758571Y-93158571D01*
X375472857Y-93158571D01*
X376758571Y-94658571D02*
X376758571Y-93158571D01*
X376758571Y-94587142D02*
X376615714Y-94658571D01*
X376330000Y-94658571D01*
X376187142Y-94587142D01*
X376115714Y-94515714D01*
X376044285Y-94372857D01*
X376044285Y-93944285D01*
X376115714Y-93801428D01*
X376187142Y-93730000D01*
X376330000Y-93658571D01*
X376615714Y-93658571D01*
X376758571Y-93730000D01*
X377472857Y-94658571D02*
X377472857Y-93658571D01*
X377472857Y-93158571D02*
X377401428Y-93230000D01*
X377472857Y-93301428D01*
X377544285Y-93230000D01*
X377472857Y-93158571D01*
X377472857Y-93301428D01*
X377972857Y-93658571D02*
X378544285Y-93658571D01*
X378187142Y-93158571D02*
X378187142Y-94444285D01*
X378258571Y-94587142D01*
X378401428Y-94658571D01*
X378544285Y-94658571D01*
X379615714Y-94587142D02*
X379472857Y-94658571D01*
X379187142Y-94658571D01*
X379044285Y-94587142D01*
X378972857Y-94444285D01*
X378972857Y-93872857D01*
X379044285Y-93730000D01*
X379187142Y-93658571D01*
X379472857Y-93658571D01*
X379615714Y-93730000D01*
X379687142Y-93872857D01*
X379687142Y-94015714D01*
X378972857Y-94158571D01*
X380972857Y-94658571D02*
X380972857Y-93158571D01*
X380972857Y-94587142D02*
X380830000Y-94658571D01*
X380544285Y-94658571D01*
X380401428Y-94587142D01*
X380330000Y-94515714D01*
X380258571Y-94372857D01*
X380258571Y-93944285D01*
X380330000Y-93801428D01*
X380401428Y-93730000D01*
X380544285Y-93658571D01*
X380830000Y-93658571D01*
X380972857Y-93730000D01*
X383115714Y-93158571D02*
X383401428Y-93158571D01*
X383544285Y-93230000D01*
X383687142Y-93372857D01*
X383758571Y-93658571D01*
X383758571Y-94158571D01*
X383687142Y-94444285D01*
X383544285Y-94587142D01*
X383401428Y-94658571D01*
X383115714Y-94658571D01*
X382972857Y-94587142D01*
X382830000Y-94444285D01*
X382758571Y-94158571D01*
X382758571Y-93658571D01*
X382830000Y-93372857D01*
X382972857Y-93230000D01*
X383115714Y-93158571D01*
X385044285Y-94587142D02*
X384901428Y-94658571D01*
X384615714Y-94658571D01*
X384472857Y-94587142D01*
X384401428Y-94515714D01*
X384330000Y-94372857D01*
X384330000Y-93944285D01*
X384401428Y-93801428D01*
X384472857Y-93730000D01*
X384615714Y-93658571D01*
X384901428Y-93658571D01*
X385044285Y-93730000D01*
X385472857Y-93658571D02*
X386044285Y-93658571D01*
X385687142Y-93158571D02*
X385687142Y-94444285D01*
X385758571Y-94587142D01*
X385901428Y-94658571D01*
X386044285Y-94658571D01*
X387544285Y-93158571D02*
X388472857Y-93158571D01*
X387972857Y-93730000D01*
X388187142Y-93730000D01*
X388330000Y-93801428D01*
X388401428Y-93872857D01*
X388472857Y-94015714D01*
X388472857Y-94372857D01*
X388401428Y-94515714D01*
X388330000Y-94587142D01*
X388187142Y-94658571D01*
X387758571Y-94658571D01*
X387615714Y-94587142D01*
X387544285Y-94515714D01*
X389901428Y-94658571D02*
X389044285Y-94658571D01*
X389472857Y-94658571D02*
X389472857Y-93158571D01*
X389330000Y-93372857D01*
X389187142Y-93515714D01*
X389044285Y-93587142D01*
X390615714Y-94587142D02*
X390615714Y-94658571D01*
X390544285Y-94801428D01*
X390472857Y-94872857D01*
X392330000Y-93301428D02*
X392401428Y-93230000D01*
X392544285Y-93158571D01*
X392901428Y-93158571D01*
X393044285Y-93230000D01*
X393115714Y-93301428D01*
X393187142Y-93444285D01*
X393187142Y-93587142D01*
X393115714Y-93801428D01*
X392258571Y-94658571D01*
X393187142Y-94658571D01*
X394115714Y-93158571D02*
X394258571Y-93158571D01*
X394401428Y-93230000D01*
X394472857Y-93301428D01*
X394544285Y-93444285D01*
X394615714Y-93730000D01*
X394615714Y-94087142D01*
X394544285Y-94372857D01*
X394472857Y-94515714D01*
X394401428Y-94587142D01*
X394258571Y-94658571D01*
X394115714Y-94658571D01*
X393972857Y-94587142D01*
X393901428Y-94515714D01*
X393830000Y-94372857D01*
X393758571Y-94087142D01*
X393758571Y-93730000D01*
X393830000Y-93444285D01*
X393901428Y-93301428D01*
X393972857Y-93230000D01*
X394115714Y-93158571D01*
X395187142Y-93301428D02*
X395258571Y-93230000D01*
X395401428Y-93158571D01*
X395758571Y-93158571D01*
X395901428Y-93230000D01*
X395972857Y-93301428D01*
X396044285Y-93444285D01*
X396044285Y-93587142D01*
X395972857Y-93801428D01*
X395115714Y-94658571D01*
X396044285Y-94658571D01*
X396544285Y-93158571D02*
X397472857Y-93158571D01*
X396972857Y-93730000D01*
X397187142Y-93730000D01*
X397330000Y-93801428D01*
X397401428Y-93872857D01*
X397472857Y-94015714D01*
X397472857Y-94372857D01*
X397401428Y-94515714D01*
X397330000Y-94587142D01*
X397187142Y-94658571D01*
X396758571Y-94658571D01*
X396615714Y-94587142D01*
X396544285Y-94515714D01*
D11*
X236053333Y-84272380D02*
X235720000Y-83796190D01*
X235481904Y-84272380D02*
X235481904Y-83272380D01*
X235862857Y-83272380D01*
X235958095Y-83320000D01*
X236005714Y-83367619D01*
X236053333Y-83462857D01*
X236053333Y-83605714D01*
X236005714Y-83700952D01*
X235958095Y-83748571D01*
X235862857Y-83796190D01*
X235481904Y-83796190D01*
X236910476Y-83272380D02*
X236720000Y-83272380D01*
X236624761Y-83320000D01*
X236577142Y-83367619D01*
X236481904Y-83510476D01*
X236434285Y-83700952D01*
X236434285Y-84081904D01*
X236481904Y-84177142D01*
X236529523Y-84224761D01*
X236624761Y-84272380D01*
X236815238Y-84272380D01*
X236910476Y-84224761D01*
X236958095Y-84177142D01*
X237005714Y-84081904D01*
X237005714Y-83843809D01*
X236958095Y-83748571D01*
X236910476Y-83700952D01*
X236815238Y-83653333D01*
X236624761Y-83653333D01*
X236529523Y-83700952D01*
X236481904Y-83748571D01*
X236434285Y-83843809D01*
X95083333Y-76652380D02*
X94750000Y-76176190D01*
X94511904Y-76652380D02*
X94511904Y-75652380D01*
X94892857Y-75652380D01*
X94988095Y-75700000D01*
X95035714Y-75747619D01*
X95083333Y-75842857D01*
X95083333Y-75985714D01*
X95035714Y-76080952D01*
X94988095Y-76128571D01*
X94892857Y-76176190D01*
X94511904Y-76176190D01*
X96035714Y-76652380D02*
X95464285Y-76652380D01*
X95750000Y-76652380D02*
X95750000Y-75652380D01*
X95654761Y-75795238D01*
X95559523Y-75890476D01*
X95464285Y-75938095D01*
X40703809Y-48712380D02*
X40370476Y-48236190D01*
X40132380Y-48712380D02*
X40132380Y-47712380D01*
X40513333Y-47712380D01*
X40608571Y-47760000D01*
X40656190Y-47807619D01*
X40703809Y-47902857D01*
X40703809Y-48045714D01*
X40656190Y-48140952D01*
X40608571Y-48188571D01*
X40513333Y-48236190D01*
X40132380Y-48236190D01*
X41132380Y-48712380D02*
X41132380Y-47712380D01*
X41513333Y-47712380D01*
X41608571Y-47760000D01*
X41656190Y-47807619D01*
X41703809Y-47902857D01*
X41703809Y-48045714D01*
X41656190Y-48140952D01*
X41608571Y-48188571D01*
X41513333Y-48236190D01*
X41132380Y-48236190D01*
X42132380Y-48712380D02*
X42132380Y-48045714D01*
X42132380Y-47712380D02*
X42084761Y-47760000D01*
X42132380Y-47807619D01*
X42180000Y-47760000D01*
X42132380Y-47712380D01*
X42132380Y-47807619D01*
X43275238Y-47712380D02*
X43941904Y-47712380D01*
X43275238Y-48712380D01*
X43941904Y-48712380D01*
X44703809Y-48664761D02*
X44608571Y-48712380D01*
X44418095Y-48712380D01*
X44322857Y-48664761D01*
X44275238Y-48569523D01*
X44275238Y-48188571D01*
X44322857Y-48093333D01*
X44418095Y-48045714D01*
X44608571Y-48045714D01*
X44703809Y-48093333D01*
X44751428Y-48188571D01*
X44751428Y-48283809D01*
X44275238Y-48379047D01*
X45180000Y-48712380D02*
X45180000Y-48045714D01*
X45180000Y-48236190D02*
X45227619Y-48140952D01*
X45275238Y-48093333D01*
X45370476Y-48045714D01*
X45465714Y-48045714D01*
X45941904Y-48712380D02*
X45846666Y-48664761D01*
X45799047Y-48617142D01*
X45751428Y-48521904D01*
X45751428Y-48236190D01*
X45799047Y-48140952D01*
X45846666Y-48093333D01*
X45941904Y-48045714D01*
X46084761Y-48045714D01*
X46180000Y-48093333D01*
X46227619Y-48140952D01*
X46275238Y-48236190D01*
X46275238Y-48521904D01*
X46227619Y-48617142D01*
X46180000Y-48664761D01*
X46084761Y-48712380D01*
X45941904Y-48712380D01*
X236053333Y-75382380D02*
X235720000Y-74906190D01*
X235481904Y-75382380D02*
X235481904Y-74382380D01*
X235862857Y-74382380D01*
X235958095Y-74430000D01*
X236005714Y-74477619D01*
X236053333Y-74572857D01*
X236053333Y-74715714D01*
X236005714Y-74810952D01*
X235958095Y-74858571D01*
X235862857Y-74906190D01*
X235481904Y-74906190D01*
X236958095Y-74382380D02*
X236481904Y-74382380D01*
X236434285Y-74858571D01*
X236481904Y-74810952D01*
X236577142Y-74763333D01*
X236815238Y-74763333D01*
X236910476Y-74810952D01*
X236958095Y-74858571D01*
X237005714Y-74953809D01*
X237005714Y-75191904D01*
X236958095Y-75287142D01*
X236910476Y-75334761D01*
X236815238Y-75382380D01*
X236577142Y-75382380D01*
X236481904Y-75334761D01*
X236434285Y-75287142D01*
X377023333Y-84272380D02*
X376690000Y-83796190D01*
X376451904Y-84272380D02*
X376451904Y-83272380D01*
X376832857Y-83272380D01*
X376928095Y-83320000D01*
X376975714Y-83367619D01*
X377023333Y-83462857D01*
X377023333Y-83605714D01*
X376975714Y-83700952D01*
X376928095Y-83748571D01*
X376832857Y-83796190D01*
X376451904Y-83796190D01*
X377880476Y-83605714D02*
X377880476Y-84272380D01*
X377642380Y-83224761D02*
X377404285Y-83939047D01*
X378023333Y-83939047D01*
X95083333Y-84272380D02*
X94750000Y-83796190D01*
X94511904Y-84272380D02*
X94511904Y-83272380D01*
X94892857Y-83272380D01*
X94988095Y-83320000D01*
X95035714Y-83367619D01*
X95083333Y-83462857D01*
X95083333Y-83605714D01*
X95035714Y-83700952D01*
X94988095Y-83748571D01*
X94892857Y-83796190D01*
X94511904Y-83796190D01*
X95464285Y-83367619D02*
X95511904Y-83320000D01*
X95607142Y-83272380D01*
X95845238Y-83272380D01*
X95940476Y-83320000D01*
X95988095Y-83367619D01*
X96035714Y-83462857D01*
X96035714Y-83558095D01*
X95988095Y-83700952D01*
X95416666Y-84272380D01*
X96035714Y-84272380D01*
X377023333Y-75382380D02*
X376690000Y-74906190D01*
X376451904Y-75382380D02*
X376451904Y-74382380D01*
X376832857Y-74382380D01*
X376928095Y-74430000D01*
X376975714Y-74477619D01*
X377023333Y-74572857D01*
X377023333Y-74715714D01*
X376975714Y-74810952D01*
X376928095Y-74858571D01*
X376832857Y-74906190D01*
X376451904Y-74906190D01*
X377356666Y-74382380D02*
X377975714Y-74382380D01*
X377642380Y-74763333D01*
X377785238Y-74763333D01*
X377880476Y-74810952D01*
X377928095Y-74858571D01*
X377975714Y-74953809D01*
X377975714Y-75191904D01*
X377928095Y-75287142D01*
X377880476Y-75334761D01*
X377785238Y-75382380D01*
X377499523Y-75382380D01*
X377404285Y-75334761D01*
X377356666Y-75287142D01*
D12*
X241070000Y-83820000D02*
X241840000Y-83820000D01*
X241840000Y-82450000D02*
X241840000Y-85190000D01*
X249150000Y-83820000D02*
X248380000Y-83820000D01*
X241840000Y-85190000D02*
X248380000Y-85190000D01*
X248380000Y-85190000D02*
X248380000Y-82450000D01*
X248380000Y-82450000D02*
X241840000Y-82450000D01*
X105329319Y-56419000D02*
X105329319Y-44419001D01*
X121329320Y-44419001D02*
X105329319Y-44419001D01*
X77829999Y-57917600D02*
X122830001Y-57917600D01*
X122830001Y-57917600D02*
X122830001Y-56419000D01*
X121329320Y-56419000D02*
X121329320Y-44419001D01*
X77829999Y-57917600D02*
X77829999Y-56419000D01*
X122830001Y-56419000D02*
X77829999Y-56419000D01*
X105346500Y-53015400D02*
X100393500Y-53015400D01*
X79330680Y-56419000D02*
X79330680Y-44419001D01*
X95330681Y-44419001D02*
X79330680Y-44419001D01*
X122830001Y-56419000D02*
X121329320Y-56419000D01*
X100330000Y-53015400D02*
X95377000Y-53015400D01*
X79330680Y-56419000D02*
X77829999Y-56419000D01*
X95330681Y-56419000D02*
X95330681Y-44419001D01*
X93980000Y-64801000D02*
X106680000Y-64801000D01*
X106680000Y-64801000D02*
X106680000Y-59721000D01*
X106680000Y-59721000D02*
X93980000Y-59721000D01*
X93980000Y-59721000D02*
X93980000Y-64801000D01*
X108180000Y-76200000D02*
X107410000Y-76200000D01*
X107410000Y-77570000D02*
X107410000Y-74830000D01*
X100100000Y-76200000D02*
X100870000Y-76200000D01*
X107410000Y-74830000D02*
X100870000Y-74830000D01*
X100870000Y-77570000D02*
X107410000Y-77570000D01*
X100870000Y-74830000D02*
X100870000Y-77570000D01*
X263800001Y-56419000D02*
X262299320Y-56419000D01*
X262299320Y-56419000D02*
X262299320Y-44419001D01*
X218799999Y-57917600D02*
X263800001Y-57917600D01*
X246299319Y-56419000D02*
X246299319Y-44419001D01*
X220300680Y-56419000D02*
X218799999Y-56419000D01*
X241300000Y-53015400D02*
X236347000Y-53015400D01*
X263800001Y-56419000D02*
X218799999Y-56419000D01*
X246316500Y-53015400D02*
X241363500Y-53015400D01*
X220300680Y-56419000D02*
X220300680Y-44419001D01*
X236300681Y-56419000D02*
X236300681Y-44419001D01*
X263800001Y-57917600D02*
X263800001Y-56419000D01*
X236300681Y-44419001D02*
X220300680Y-44419001D01*
X218799999Y-57917600D02*
X218799999Y-56419000D01*
X262299320Y-44419001D02*
X246299319Y-44419001D01*
X234950000Y-64801000D02*
X247650000Y-64801000D01*
X247650000Y-64801000D02*
X247650000Y-59721000D01*
X247650000Y-59721000D02*
X234950000Y-59721000D01*
X234950000Y-59721000D02*
X234950000Y-64801000D01*
X38100000Y-99060000D02*
X38100000Y-45720000D01*
X38100000Y-45720000D02*
X30480000Y-45720000D01*
X30480000Y-99060000D02*
X38100000Y-99060000D01*
X30480000Y-45720000D02*
X30480000Y-99060000D01*
X249150000Y-74930000D02*
X248380000Y-74930000D01*
X241840000Y-73560000D02*
X241840000Y-76300000D01*
X248380000Y-76300000D02*
X248380000Y-73560000D01*
X241070000Y-74930000D02*
X241840000Y-74930000D01*
X248380000Y-73560000D02*
X241840000Y-73560000D01*
X241840000Y-76300000D02*
X248380000Y-76300000D01*
X382810000Y-85190000D02*
X389350000Y-85190000D01*
X389350000Y-85190000D02*
X389350000Y-82450000D01*
X390120000Y-83820000D02*
X389350000Y-83820000D01*
X389350000Y-82450000D02*
X382810000Y-82450000D01*
X382810000Y-82450000D02*
X382810000Y-85190000D01*
X382040000Y-83820000D02*
X382810000Y-83820000D01*
X404770001Y-56419000D02*
X403269320Y-56419000D01*
X404770001Y-56419000D02*
X359769999Y-56419000D01*
X377270681Y-44419001D02*
X361270680Y-44419001D01*
X404770001Y-57917600D02*
X404770001Y-56419000D01*
X387286500Y-53015400D02*
X382333500Y-53015400D01*
X361270680Y-56419000D02*
X361270680Y-44419001D01*
X403269320Y-56419000D02*
X403269320Y-44419001D01*
X403269320Y-44419001D02*
X387269319Y-44419001D01*
X361270680Y-56419000D02*
X359769999Y-56419000D01*
X377270681Y-56419000D02*
X377270681Y-44419001D01*
X382270000Y-53015400D02*
X377317000Y-53015400D01*
X359769999Y-57917600D02*
X404770001Y-57917600D01*
X387269319Y-56419000D02*
X387269319Y-44419001D01*
X359769999Y-57917600D02*
X359769999Y-56419000D01*
X375920000Y-64801000D02*
X388620000Y-64801000D01*
X388620000Y-64801000D02*
X388620000Y-59721000D01*
X388620000Y-59721000D02*
X375920000Y-59721000D01*
X375920000Y-59721000D02*
X375920000Y-64801000D01*
X107410000Y-85190000D02*
X107410000Y-82450000D01*
X100870000Y-82450000D02*
X100870000Y-85190000D01*
X107410000Y-82450000D02*
X100870000Y-82450000D01*
X108180000Y-83820000D02*
X107410000Y-83820000D01*
X100100000Y-83820000D02*
X100870000Y-83820000D01*
X100870000Y-85190000D02*
X107410000Y-85190000D01*
X382810000Y-73580000D02*
X382810000Y-76320000D01*
X382810000Y-76320000D02*
X389350000Y-76320000D01*
X389350000Y-73580000D02*
X382810000Y-73580000D01*
X389350000Y-76320000D02*
X389350000Y-73580000D01*
X390120000Y-74950000D02*
X389350000Y-74950000D01*
X382040000Y-74950000D02*
X382810000Y-74950000D01*
%LPC*%
D13*
X250190000Y-83820000D03*
D14*
X240030000Y-83820000D03*
D15*
X104140000Y-62261000D03*
D16*
X101600000Y-62261000D03*
X99060000Y-62261000D03*
X96520000Y-62261000D03*
D13*
X99060000Y-76200000D03*
D14*
X109220000Y-76200000D03*
D15*
X245110000Y-62261000D03*
D16*
X242570000Y-62261000D03*
X240030000Y-62261000D03*
X237490000Y-62261000D03*
X33020000Y-96520000D03*
X35560000Y-96520000D03*
X33020000Y-93980000D03*
X35560000Y-93980000D03*
X33020000Y-91440000D03*
X35560000Y-91440000D03*
X33020000Y-88900000D03*
X35560000Y-88900000D03*
X33020000Y-86360000D03*
X35560000Y-86360000D03*
X33020000Y-83820000D03*
X35560000Y-83820000D03*
X33020000Y-81280000D03*
X35560000Y-81280000D03*
X33020000Y-78740000D03*
X35560000Y-78740000D03*
X33020000Y-76200000D03*
X35560000Y-76200000D03*
X33020000Y-73660000D03*
X35560000Y-73660000D03*
X33020000Y-71120000D03*
X35560000Y-71120000D03*
X33020000Y-68580000D03*
X35560000Y-68580000D03*
X33020000Y-66040000D03*
X35560000Y-66040000D03*
X33020000Y-63500000D03*
X35560000Y-63500000D03*
X33020000Y-60960000D03*
X35560000Y-60960000D03*
X33020000Y-58420000D03*
X35560000Y-58420000D03*
X33020000Y-55880000D03*
X35560000Y-55880000D03*
X33020000Y-53340000D03*
X35560000Y-53340000D03*
X33020000Y-50800000D03*
X35560000Y-50800000D03*
X33020000Y-48260000D03*
X35560000Y-48260000D03*
D13*
X240030000Y-74930000D03*
D14*
X250190000Y-74930000D03*
D13*
X391160000Y-83820000D03*
D14*
X381000000Y-83820000D03*
D15*
X386080000Y-62261000D03*
D16*
X383540000Y-62261000D03*
X381000000Y-62261000D03*
X378460000Y-62261000D03*
D13*
X99060000Y-83820000D03*
D14*
X109220000Y-83820000D03*
D13*
X381000000Y-74950000D03*
D14*
X391160000Y-74950000D03*
M02*
