G04 #@! TF.GenerationSoftware,KiCad,Pcbnew,(6.0.10)*
G04 #@! TF.CreationDate,2023-10-31T07:54:40-04:00*
G04 #@! TF.ProjectId,iDLSchema,69444c53-6368-4656-9d61-2e6b69636164,0.3.2*
G04 #@! TF.SameCoordinates,Original*
G04 #@! TF.FileFunction,Soldermask,Top*
G04 #@! TF.FilePolarity,Negative*
%FSLAX46Y46*%
G04 Gerber Fmt 4.6, Leading zero omitted, Abs format (unit mm)*
G04 Created by KiCad (PCBNEW (6.0.10)) date 2023-10-31 07:54:40*
%MOMM*%
%LPD*%
G01*
G04 APERTURE LIST*
%ADD10C,1.600000*%
%ADD11O,1.600000X1.600000*%
%ADD12R,1.524000X1.524000*%
%ADD13C,1.524000*%
G04 APERTURE END LIST*
D10*
X250190000Y-83820000D03*
D11*
X240030000Y-83820000D03*
D12*
X104140000Y-62261000D03*
D13*
X101600000Y-62261000D03*
X99060000Y-62261000D03*
X96520000Y-62261000D03*
D10*
X99060000Y-76200000D03*
D11*
X109220000Y-76200000D03*
D12*
X245110000Y-62261000D03*
D13*
X242570000Y-62261000D03*
X240030000Y-62261000D03*
X237490000Y-62261000D03*
X33020000Y-96520000D03*
X35560000Y-96520000D03*
X33020000Y-93980000D03*
X35560000Y-93980000D03*
X33020000Y-91440000D03*
X35560000Y-91440000D03*
X33020000Y-88900000D03*
X35560000Y-88900000D03*
X33020000Y-86360000D03*
X35560000Y-86360000D03*
X33020000Y-83820000D03*
X35560000Y-83820000D03*
X33020000Y-81280000D03*
X35560000Y-81280000D03*
X33020000Y-78740000D03*
X35560000Y-78740000D03*
X33020000Y-76200000D03*
X35560000Y-76200000D03*
X33020000Y-73660000D03*
X35560000Y-73660000D03*
X33020000Y-71120000D03*
X35560000Y-71120000D03*
X33020000Y-68580000D03*
X35560000Y-68580000D03*
X33020000Y-66040000D03*
X35560000Y-66040000D03*
X33020000Y-63500000D03*
X35560000Y-63500000D03*
X33020000Y-60960000D03*
X35560000Y-60960000D03*
X33020000Y-58420000D03*
X35560000Y-58420000D03*
X33020000Y-55880000D03*
X35560000Y-55880000D03*
X33020000Y-53340000D03*
X35560000Y-53340000D03*
X33020000Y-50800000D03*
X35560000Y-50800000D03*
X33020000Y-48260000D03*
X35560000Y-48260000D03*
D10*
X240030000Y-74930000D03*
D11*
X250190000Y-74930000D03*
D10*
X391160000Y-83820000D03*
D11*
X381000000Y-83820000D03*
D12*
X386080000Y-62261000D03*
D13*
X383540000Y-62261000D03*
X381000000Y-62261000D03*
X378460000Y-62261000D03*
D10*
X99060000Y-83820000D03*
D11*
X109220000Y-83820000D03*
D10*
X381000000Y-74950000D03*
D11*
X391160000Y-74950000D03*
M02*
