M48
; DRILL file {KiCad (6.0.10)} date Tue Oct 31 07:55:01 2023
; FORMAT={-:-/ absolute / metric / decimal}
; #@! TF.CreationDate,2023-10-31T07:55:01-04:00
; #@! TF.GenerationSoftware,Kicad,Pcbnew,(6.0.10)
; #@! TF.FileFunction,Plated,1,2,PTH
FMAT,2
METRIC
; #@! TA.AperFunction,Plated,PTH,ViaDrill
T1C0.400
; #@! TA.AperFunction,Plated,PTH,ComponentDrill
T2C0.762
; #@! TA.AperFunction,Plated,PTH,ComponentDrill
T3C0.800
%
G90
G05
T1
X50.8Y-81.28
X55.88Y-86.36
X63.5Y-77.47
X63.5Y-82.55
X66.04Y-73.66
X69.85Y-81.28
X74.93Y-86.36
X77.47Y-81.28
X86.36Y-80.01
X97.79Y-68.58
X100.33Y-68.58
X234.95Y-72.39
X379.73Y-69.85
T2
X33.02Y-48.26
X33.02Y-50.8
X33.02Y-53.34
X33.02Y-55.88
X33.02Y-58.42
X33.02Y-60.96
X33.02Y-63.5
X33.02Y-66.04
X33.02Y-68.58
X33.02Y-71.12
X33.02Y-73.66
X33.02Y-76.2
X33.02Y-78.74
X33.02Y-81.28
X33.02Y-83.82
X33.02Y-86.36
X33.02Y-88.9
X33.02Y-91.44
X33.02Y-93.98
X33.02Y-96.52
X35.56Y-48.26
X35.56Y-50.8
X35.56Y-53.34
X35.56Y-55.88
X35.56Y-58.42
X35.56Y-60.96
X35.56Y-63.5
X35.56Y-66.04
X35.56Y-68.58
X35.56Y-71.12
X35.56Y-73.66
X35.56Y-76.2
X35.56Y-78.74
X35.56Y-81.28
X35.56Y-83.82
X35.56Y-86.36
X35.56Y-88.9
X35.56Y-91.44
X35.56Y-93.98
X35.56Y-96.52
X96.52Y-62.261
X99.06Y-62.261
X101.6Y-62.261
X104.14Y-62.261
X237.49Y-62.261
X240.03Y-62.261
X242.57Y-62.261
X245.11Y-62.261
X378.46Y-62.261
X381.0Y-62.261
X383.54Y-62.261
X386.08Y-62.261
T3
X99.06Y-76.2
X99.06Y-83.82
X109.22Y-76.2
X109.22Y-83.82
X240.03Y-74.93
X240.03Y-83.82
X250.19Y-74.93
X250.19Y-83.82
X381.0Y-74.95
X381.0Y-83.82
X391.16Y-74.95
X391.16Y-83.82
T0
M30
