%TF.GenerationSoftware,KiCad,Pcbnew,(6.0.10)*%
%TF.CreationDate,2023-10-31T07:55:02-04:00*%
%TF.ProjectId,iDLSchema,69444c53-6368-4656-9d61-2e6b69636164,0.3.2*%
%TF.SameCoordinates,Original*%
%TF.FileFunction,Drillmap*%
%TF.FilePolarity,Positive*%
%FSLAX45Y45*%
G04 Gerber Fmt 4.5, Leading zero omitted, Abs format (unit mm)*
G04 Created by KiCad (PCBNEW (6.0.10)) date 2023-10-31 07:55:02*
%MOMM*%
%LPD*%
G01*
G04 APERTURE LIST*
%ADD10C,0.100000*%
%ADD11C,0.200000*%
G04 APERTURE END LIST*
D10*
X3048000Y-4572000D02*
X40513000Y-4572000D01*
X40513000Y-4572000D02*
X40513000Y-9906000D01*
X40513000Y-9906000D02*
X3048000Y-9906000D01*
X3048000Y-9906000D02*
X3048000Y-4572000D01*
D11*
X3300619Y-10221476D02*
X3300619Y-10021476D01*
X3348238Y-10021476D01*
X3376809Y-10031000D01*
X3395857Y-10050048D01*
X3405381Y-10069095D01*
X3414905Y-10107190D01*
X3414905Y-10135762D01*
X3405381Y-10173857D01*
X3395857Y-10192905D01*
X3376809Y-10211952D01*
X3348238Y-10221476D01*
X3300619Y-10221476D01*
X3500619Y-10221476D02*
X3500619Y-10088143D01*
X3500619Y-10126238D02*
X3510143Y-10107190D01*
X3519667Y-10097667D01*
X3538714Y-10088143D01*
X3557762Y-10088143D01*
X3624428Y-10221476D02*
X3624428Y-10088143D01*
X3624428Y-10021476D02*
X3614905Y-10031000D01*
X3624428Y-10040524D01*
X3633952Y-10031000D01*
X3624428Y-10021476D01*
X3624428Y-10040524D01*
X3748238Y-10221476D02*
X3729190Y-10211952D01*
X3719667Y-10192905D01*
X3719667Y-10021476D01*
X3853000Y-10221476D02*
X3833952Y-10211952D01*
X3824428Y-10192905D01*
X3824428Y-10021476D01*
X4081571Y-10221476D02*
X4081571Y-10021476D01*
X4148238Y-10164333D01*
X4214905Y-10021476D01*
X4214905Y-10221476D01*
X4395857Y-10221476D02*
X4395857Y-10116714D01*
X4386333Y-10097667D01*
X4367286Y-10088143D01*
X4329190Y-10088143D01*
X4310143Y-10097667D01*
X4395857Y-10211952D02*
X4376810Y-10221476D01*
X4329190Y-10221476D01*
X4310143Y-10211952D01*
X4300619Y-10192905D01*
X4300619Y-10173857D01*
X4310143Y-10154810D01*
X4329190Y-10145286D01*
X4376810Y-10145286D01*
X4395857Y-10135762D01*
X4491095Y-10088143D02*
X4491095Y-10288143D01*
X4491095Y-10097667D02*
X4510143Y-10088143D01*
X4548238Y-10088143D01*
X4567286Y-10097667D01*
X4576810Y-10107190D01*
X4586333Y-10126238D01*
X4586333Y-10183381D01*
X4576810Y-10202429D01*
X4567286Y-10211952D01*
X4548238Y-10221476D01*
X4510143Y-10221476D01*
X4491095Y-10211952D01*
X4672048Y-10202429D02*
X4681571Y-10211952D01*
X4672048Y-10221476D01*
X4662524Y-10211952D01*
X4672048Y-10202429D01*
X4672048Y-10221476D01*
X4672048Y-10097667D02*
X4681571Y-10107190D01*
X4672048Y-10116714D01*
X4662524Y-10107190D01*
X4672048Y-10097667D01*
X4672048Y-10116714D01*
M02*
